<?xml version="1.0" encoding="utf-8"?>
<!-- Generator: Adobe Illustrator 17.0.0, SVG Export Plug-In . SVG Version: 6.00 Build 0)  -->
<!DOCTYPE svg PUBLIC "-//W3C//DTD SVG 1.1//EN" "http://www.w3.org/Graphics/SVG/1.1/DTD/svg11.dtd">
<svg version="1.1" id="Layer_1" xmlns="http://www.w3.org/2000/svg" xmlns:xlink="http://www.w3.org/1999/xlink" x="0px" y="0px"
	 width="22.225px" height="11.147px" viewBox="0 0 22.225 11.147" enable-background="new 0 0 22.225 11.147" xml:space="preserve">
<g id="right-arrow3" transform="translate(-10 -166.237)">
	<path id="Path_3" fill="#6495ED" d="M31.894,171.237l-4.263-4.912c-0.311-0.192-0.719-0.095-0.911,0.216
		c-0.192,0.311-0.095,0.719,0.216,0.911c0.011,0.007,0.022,0.013,0.033,0.019l2.942,3.678H10.662
		c-0.365-0.014-0.673,0.27-0.687,0.636c-0.014,0.365,0.27,0.673,0.636,0.687c0.017,0.001,0.034,0.001,0.051,0h19.244l-2.938,3.676
		c-0.322,0.174-0.442,0.575-0.268,0.897s0.575,0.442,0.897,0.268c0.011-0.006,0.022-0.012,0.033-0.019l4.263-4.912
		c0.316-0.183,0.425-0.588,0.241-0.905c-0.058-0.1-0.141-0.183-0.241-0.241L31.894,171.237z"/>
</g>
</svg>
